<svg width="21" height="16" viewBox="0 0 21 16" fill="none" xmlns="http://www.w3.org/2000/svg">
<path d="M1.1721 2.34421C1.81396 2.34421 2.3442 1.82791 2.3442 1.1721C2.3442 0.530241 1.81396 0 1.1721 0C0.51629 0 0 0.530241 0 1.1721C0 1.82791 0.51629 2.34421 1.1721 2.34421ZM5.48372 1.49305H20.6791C20.8744 1.49305 21 1.35351 21 1.1721C21 0.990698 20.8744 0.851186 20.6791 0.851186H5.48372C5.30232 0.851186 5.17675 0.990698 5.17675 1.1721C5.17675 1.35351 5.30232 1.49305 5.48372 1.49305ZM1.1721 8.74885C1.81396 8.74885 2.3442 8.23255 2.3442 7.57675C2.3442 6.92094 1.81396 6.40467 1.1721 6.40467C0.51629 6.40467 0 6.92094 0 7.57675C0 8.23255 0.51629 8.74885 1.1721 8.74885ZM5.48372 7.89769H20.6791C20.8744 7.89769 21 7.75815 21 7.57675C21 7.39537 20.8744 7.25583 20.6791 7.25583H5.48372C5.30232 7.25583 5.17675 7.39537 5.17675 7.57675C5.17675 7.75815 5.30232 7.89769 5.48372 7.89769ZM1.1721 15.1535C1.81396 15.1535 2.3442 14.6233 2.3442 13.9814C2.3442 13.3256 1.81396 12.8093 1.1721 12.8093C0.51629 12.8093 0 13.3256 0 13.9814C0 14.6233 0.51629 15.1535 1.1721 15.1535ZM5.48372 14.3023H20.6791C20.8744 14.3023 21 14.1628 21 13.9814C21 13.8 20.8744 13.6605 20.6791 13.6605H5.48372C5.30232 13.6605 5.17675 13.8 5.17675 13.9814C5.17675 14.1628 5.30232 14.3023 5.48372 14.3023Z" fill="black"/>
</svg>
