<svg width="24" height="18" viewBox="0 0 24 18" fill="none" xmlns="http://www.w3.org/2000/svg">
<path d="M0 15.3314C0 17.0712 0.928775 18 2.68169 18H21.0349C22.7878 18 23.7035 17.0451 23.7035 15.3314V2.66859C23.7035 0.941854 22.7878 0 21.0349 0H2.68169C0.928775 0 0 0.92878 0 2.66859V15.3314ZM2.56394 2.81249C2.22384 2.81249 1.92298 2.51163 1.92298 2.17152C1.92298 1.81831 2.22384 1.53053 2.56394 1.53053C2.91715 1.53053 3.21801 1.81831 3.21801 2.17152C3.21801 2.51163 2.91715 2.81249 2.56394 2.81249ZM4.84011 2.81249C4.48693 2.81249 4.18604 2.5247 4.18604 2.17152C4.18604 1.81831 4.48693 1.53053 4.84011 1.53053C5.18024 1.53053 5.4811 1.81831 5.4811 2.17152C5.4811 2.5247 5.18024 2.81249 4.84011 2.81249ZM7.1032 2.79941C6.74999 2.79941 6.46221 2.5247 6.46221 2.17152C6.46221 1.81831 6.74999 1.53053 7.1032 1.53053C7.45641 1.53053 7.74419 1.81831 7.74419 2.17152C7.74419 2.5247 7.45641 2.79941 7.1032 2.79941ZM0.588667 15.2922V4.34301H23.1148V15.2922C23.1148 16.6919 22.343 17.4113 21.0087 17.4113H2.70784C1.30813 17.4113 0.588667 16.6919 0.588667 15.2922ZM19.2951 14.2849C20.0669 14.2849 20.577 13.7616 20.577 12.9767C20.577 12.218 20.0669 11.7079 19.2951 11.7079H18.5756V10.0334H19.2951C20.0669 10.0334 20.577 9.53634 20.577 8.77762C20.577 7.99274 20.0669 7.46949 19.2951 7.46949C18.5232 7.46949 18.0262 7.99274 18.0262 8.77762V9.48401H16.4564V8.77762C16.4564 7.99274 15.9593 7.46949 15.2006 7.46949C14.4157 7.46949 13.9055 7.99274 13.9055 8.77762C13.9055 9.53634 14.4157 10.0334 15.2006 10.0334H15.9201V11.7079H15.2006C14.4157 11.7079 13.9055 12.218 13.9055 12.9767C13.9055 13.7616 14.4157 14.2849 15.2006 14.2849C15.9593 14.2849 16.4564 13.7616 16.4564 12.9767V12.2704H18.0262V12.9767C18.0262 13.7616 18.5232 14.2849 19.2951 14.2849ZM3.23111 8.25435C3.23111 8.41134 3.34883 8.54216 3.50583 8.54216H10.8314C10.9884 8.54216 11.1192 8.41134 11.1192 8.25435C11.1192 8.09738 10.9884 7.97966 10.8314 7.97966H3.50583C3.34883 7.97966 3.23111 8.09738 3.23111 8.25435ZM18.5756 9.51016V8.77762C18.5756 8.31977 18.8503 8.01888 19.2951 8.01888C19.7398 8.01888 20.0407 8.31977 20.0407 8.77762C20.0407 9.2093 19.7398 9.51016 19.2951 9.51016H18.5756ZM15.9201 9.51016H15.2006C14.7427 9.51016 14.4549 9.2093 14.4549 8.77762C14.4549 8.31977 14.7427 8.01888 15.2006 8.01888C15.6323 8.01888 15.9201 8.31977 15.9201 8.77762V9.51016ZM18.0262 11.7209H16.4564V10.0203H18.0262V11.7209ZM3.23111 10.8706C3.23111 11.0276 3.34883 11.1584 3.50583 11.1584H10.8314C10.9884 11.1584 11.1192 11.0276 11.1192 10.8706C11.1192 10.7137 10.9884 10.5829 10.8314 10.5829H3.50583C3.34883 10.5829 3.23111 10.7137 3.23111 10.8706ZM18.5756 12.2442H19.2951C19.7398 12.2442 20.0407 12.5451 20.0407 12.9767C20.0407 13.4346 19.7398 13.7355 19.2951 13.7355C18.8503 13.7355 18.5756 13.4346 18.5756 12.9767V12.2442ZM15.9201 12.2442V12.9767C15.9201 13.4215 15.6323 13.7355 15.2006 13.7355C14.7427 13.7355 14.4549 13.4346 14.4549 12.9767C14.4549 12.5451 14.7427 12.2442 15.2006 12.2442H15.9201ZM3.23111 13.4869C3.23111 13.6308 3.34883 13.7616 3.50583 13.7616H10.8314C10.9884 13.7616 11.1192 13.6308 11.1192 13.4869C11.1192 13.33 10.9884 13.1991 10.8314 13.1991H3.50583C3.34883 13.1991 3.23111 13.33 3.23111 13.4869Z" fill="black"/>
</svg>
