<svg width="35" height="34" viewBox="0 0 35 34" fill="none" xmlns="http://www.w3.org/2000/svg">
<path d="M17.4885 34C27.1049 34 35 26.3478 35 17C35 7.65221 27.1049 0 17.4885 0C7.87214 0 0 7.65221 0 17C0 26.3478 7.87214 34 17.4885 34ZM17.4885 32.9961C8.42297 32.9961 1.05574 25.8123 1.05574 17C1.05574 8.18766 8.42297 1.00391 17.4885 1.00391C26.5771 1.00391 33.9443 8.18766 33.9443 17C33.9443 25.8123 26.5771 32.9961 17.4885 32.9961ZM17.4885 9.77165C18.223 9.77165 18.8197 9.23621 18.8197 8.52229C18.8197 7.80838 18.223 7.22835 17.4885 7.22835C16.7541 7.22835 16.1574 7.80838 16.1574 8.52229C16.1574 9.23621 16.7541 9.77165 17.4885 9.77165ZM14.1607 26.437H21.5967C21.918 26.437 22.1246 26.1916 22.1246 25.9239C22.1246 25.6339 21.918 25.3885 21.5967 25.3885H18.3836V14.0105C18.3836 13.7205 18.177 13.475 17.8557 13.475H14.2525C13.9311 13.475 13.7246 13.6981 13.7246 13.9882C13.7246 14.2559 13.9311 14.5013 14.2525 14.5013H17.3508V25.3885H14.1607C13.8393 25.3885 13.6328 25.6339 13.6328 25.9239C13.6328 26.1916 13.8393 26.437 14.1607 26.437Z" fill="black" fill-opacity="0.5"/>
</svg>
