<svg width="77" height="77" viewBox="0 0 77 77" fill="none" xmlns="http://www.w3.org/2000/svg">
<path d="M44.2044 53.1504L46.3528 51.0508C39.2727 51.7344 34.6341 49.9277 30.9231 46.2168C23.6477 38.9414 23.6966 28.248 31.1184 20.875L43.5696 8.47267C50.9915 1.09957 61.636 0.953073 68.8626 8.17967C76.138 15.5039 76.0403 26.0996 68.6673 33.5215L57.095 45.0938C57.388 45.6797 57.5344 46.9004 56.9973 48.2676L70.4739 34.791C78.6282 26.6367 78.7747 14.9668 70.4739 6.66597C62.1243 -1.73243 50.4055 -1.48833 42.3489 6.61717L29.3118 19.6543C21.1575 27.7598 21.011 39.4785 29.3118 47.7793C32.9251 51.3926 37.2708 53.3945 44.2044 53.1504ZM33.218 23.707L31.1184 25.8066C38.1497 25.123 42.7883 26.9297 46.5481 30.6406C53.8235 37.916 53.7259 48.6094 46.304 55.9824L33.8528 68.3847C26.4309 75.7578 15.7864 75.9043 8.55976 68.6777C1.2844 61.3535 1.38206 50.7578 8.80396 43.3359L20.3762 31.7637C20.0833 31.1777 19.888 29.957 20.4251 28.5898L6.94846 42.0664C-1.157 50.2207 -1.35232 61.8906 6.94846 70.2402C15.2981 78.5898 27.0169 78.3457 35.1223 70.289L48.1594 57.2031C56.2649 49.0977 56.4602 37.3789 48.1594 29.0781C44.4973 25.4648 40.2005 23.4629 33.218 23.707Z" fill="black"/>
</svg>
