<svg width="85" height="85" viewBox="0 0 85 85" fill="none" xmlns="http://www.w3.org/2000/svg">
<path d="M30.4766 60.0605C36.7754 60.0605 42.5859 58.1074 47.4199 54.7383L76.2129 83.5313C77.1406 84.459 78.3613 84.8985 79.6309 84.8985C82.3652 84.8985 84.3672 82.7989 84.3672 80.1133C84.3672 78.8438 83.9278 77.6231 83 76.6954L54.3535 48C58.0156 43.0684 60.1641 36.9648 60.1641 30.373C60.1641 14.0156 46.834 0.685547 30.4766 0.685547C14.168 0.685547 0.789062 13.9668 0.789062 30.373C0.789062 46.7305 14.1191 60.0605 30.4766 60.0605ZM30.4766 52.7852C18.2207 52.7852 8.0645 42.6289 8.0645 30.373C8.0645 18.0684 18.2207 7.96095 30.4766 7.96095C42.7812 7.96095 52.8887 18.0684 52.8887 30.373C52.8887 42.6289 42.7812 52.7852 30.4766 52.7852Z" fill="rgb(120,120,120)"/>
</svg>
