<svg width="29" height="37" viewBox="0 0 29 37" fill="none" xmlns="http://www.w3.org/2000/svg">
<path d="M13.6507 7.51928C13.7335 7.51928 13.775 7.49853 13.7957 7.41568C14.1686 4.59855 14.2929 4.3914 17.255 3.91499C17.3793 3.89425 17.4207 3.85284 17.4207 3.76999C17.4207 3.6664 17.3793 3.62499 17.255 3.60429C14.3136 3.00354 14.4793 2.81713 13.7957 0.124257C13.775 0.0207024 13.7335 0 13.6507 0C13.5886 0 13.5471 0.0207024 13.5264 0.124257C12.8428 2.81713 13.0707 3.00354 10.0464 3.60429C9.94285 3.62499 9.90141 3.6664 9.90141 3.76999C9.90141 3.85284 9.94285 3.89425 10.0464 3.91499C13.0707 4.5157 13.0914 4.59855 13.5264 7.41568C13.5471 7.49853 13.5886 7.51928 13.6507 7.51928ZM5.53071 18.3528C5.65501 18.3528 5.73786 18.2907 5.75856 18.1457C6.48357 13.775 6.42142 13.9407 10.875 13.05C10.9786 13.0293 11.0614 12.9671 11.0614 12.8221C11.0614 12.6771 10.9786 12.615 10.875 12.5943C6.42142 11.7243 6.48357 11.8693 5.75856 7.49854C5.73786 7.35353 5.65501 7.29143 5.53071 7.29143C5.42715 7.29143 5.32356 7.35353 5.30286 7.49854C4.59855 11.8485 4.70215 11.7036 0.207142 12.5943C0.0828562 12.615 0 12.6771 0 12.8221C0 12.9671 0.0828562 13.0293 0.207142 13.05C4.70215 13.92 4.59855 13.7957 5.30286 18.1457C5.32356 18.2907 5.42715 18.3528 5.53071 18.3528ZM16.53 36.7057C16.8407 36.7057 17.0064 36.5193 17.0271 36.2707C17.9593 26.245 18.9121 25.5407 28.565 24.7328C28.8343 24.7121 29 24.5257 29 24.2771C29 24.0079 28.8343 23.8421 28.565 23.8214C18.9121 22.9928 17.9593 22.2885 17.0271 12.2835C17.0064 12.035 16.8407 11.8485 16.53 11.8485C16.24 11.8485 16.0536 12.035 16.0329 12.2835C15.1214 22.2885 14.1686 22.9928 4.495 23.8214C4.24644 23.8421 4.05999 24.0079 4.05999 24.2771C4.05999 24.5257 4.24644 24.7121 4.495 24.7328C14.1271 25.8721 14.9764 26.2657 16.0329 36.2707C16.0536 36.5193 16.24 36.7057 16.53 36.7057Z" fill="black"/>
</svg>
